<svg xmlns="http://www.w3.org/2000/svg" xml:space="preserve" viewBox="0 0 300 55.5">
  <path fill="#fbb900" d="m222.5 0-15.3 55.6h9L231.4 0zm14.6 0-15.4 55.6h5.9L242.8 0z"/>
  <path fill="#fff" d="m17.6 24.3-3.4-.2c-2.1-.2-3.4-.2-2.9-2.1.4-1.3 1-2.1 5.5-2.1 3.4 0 4.8 0 4 2.5h8l.4-1c1.9-6.7-4-6.9-10.9-6.9-8.1.1-13.3.5-15.2 7.6s2.7 7 10.3 7.4l1.7.2c3.8.2 4.4.2 3.8 2.3-.6 2.1-1.9 2.3-5.9 2.3-4.2 0-5.1-.2-4.6-2.9h-8c-2.1 8 3 8.2 11 8.2 13.7 0 14.7-4 15.8-8 1.6-5.7-.5-6.7-9.6-7.3zm24.6-9.5-16 24.4H35l2.7-4.2h11.2l.6 4.2H58l-3-24.4H42.2zm-1.6 15.4 6.7-10.7 1 10.7h-7.7zm22.1-15.4-1.5 5.7h8l-5 18.7h8.2l5.2-18.7h8.7l2.1 18.7h5.3L108 17.3h.2l2.3 21.9h5.3l16.6-24.4h-3.8l-14.7 22.3h-.2l-2.2-22.3h-5.2L91.7 37.1l-2.5-22.3zm78.8 0-18.1 24.4h3.8l3.8-5.1h15.8l1 5.1h3.6l-5-24.4h-4.9zm-8.9 17 10.9-14.7 3 14.7h-13.9zm43.4-17h-14.5l-6.7 24.4h3.6l2.7-9.7h11.4c4.4 0 4.8 1.5 4 4.6l-1.5 5.1h3.6l1.7-6.5c.8-2.7-.4-4.2-3.8-4.4 5.1-.6 6.3-3 7.2-6.5 1.6-5.4-.8-7-7.7-7zm4.4 6.7c-1.1 4-2.1 5.3-7.6 5.5h-11l2.7-9.7h11c5.5 0 5.6 1.1 4.9 4.2zm11.4 6.3h15.8l.8-2.3h-16l2.3-8.2h16.5l.8-2.5h-20.2l-6.7 24.4h20.2l.6-2.5h-16.6zM256.5 15l-18.1 24h3.8l3.8-5.1h15.8l1 5.1h3.6l-5.1-24h-4.8zm-8.9 16.8 10.9-14.5 3 14.5h-13.9zm45.3-17h-8.2c-5.3 0-9.7 1.9-11.6 8.4l-2.1 7.4c-2.1 7.4 1.3 8.6 9.7 8.6h3.4c7 0 10.9-1.3 12.4-7L298 27h-13.5l-.8 2.5h9.9l-.8 3c-1.1 3.8-2.5 4.4-8.8 4.4h-3.4c-5.9 0-7.6-1-6.3-5.5l2.1-7.8c1.5-5.3 2.7-6.3 9.5-6.3h4.4c5.1 0 6.3.8 5.5 3.4l-.4 1.3h3.6l.6-1.9c1.3-3.7-1.9-5.3-6.7-5.3z"/>
</svg>
