<?xml version="1.0" encoding="utf-8"?>
<!-- Generator: Adobe Illustrator 25.0.0, SVG Export Plug-In . SVG Version: 6.00 Build 0)  -->
<svg version="1.1" id="Ebene_1" xmlns="http://www.w3.org/2000/svg" xmlns:xlink="http://www.w3.org/1999/xlink" x="0px" y="0px"
	 viewBox="0 0 300 55.5" style="enable-background:new 0 0 300 55.5;" xml:space="preserve">
<style type="text/css">
	.st0{fill:#FBB900;}
	.st1{fill:#FFFFFF;}
</style>
<g>
	<polygon class="st0" points="222.5,0 207.2,55.6 216.2,55.6 231.4,0 	"/>
	<polygon class="st0" points="237.1,0 221.7,55.6 227.6,55.6 242.8,0 	"/>
	<path class="st1" d="M17.6,24.3l-3.4-0.2c-2.1-0.2-3.4-0.2-2.9-2.1c0.4-1.3,1-2.1,5.5-2.1c3.4,0,4.8,0,4,2.5h8l0.4-1
		c1.9-6.7-4-6.9-10.9-6.9C10.2,14.6,5,15,3.1,22.1s2.7,7,10.3,7.4l1.7,0.2c3.8,0.2,4.4,0.2,3.8,2.3c-0.6,2.1-1.9,2.3-5.9,2.3
		c-4.2,0-5.1-0.2-4.6-2.9h-8c-2.1,8,3,8.2,11,8.2c13.7,0,14.7-4,15.8-8C28.8,25.9,26.7,24.9,17.6,24.3z"/>
	<path class="st1" d="M42.2,14.8l-16,24.4h8.8l2.7-4.2h11.2l0.6,4.2H58l-3-24.4H42.2z M40.6,30.2l6.7-10.7l0,0l1,10.7H40.6z"/>
	<polygon class="st1" points="62.7,14.8 61.2,20.5 69.2,20.5 64.2,39.2 72.4,39.2 77.6,20.5 86.3,20.5 88.4,39.2 93.7,39.2 
		108,17.3 108.2,17.3 110.5,39.2 115.8,39.2 132.4,14.8 128.6,14.8 113.9,37.1 113.7,37.1 111.5,14.8 106.3,14.8 91.7,37.1 
		91.7,37.1 89.2,14.8 	"/>
	<path class="st1" d="M141.5,14.8l-18.1,24.4h3.8l3.8-5.1h15.8l1,5.1h3.6l-5-24.4H141.5z M132.6,31.8l10.9-14.7l3,14.7H132.6z"/>
	<path class="st1" d="M176,14.8h-14.5l-6.7,24.4h3.6l2.7-9.7h11.4c4.4,0,4.8,1.5,4,4.6l-1.5,5.1h3.6l1.7-6.5
		c0.8-2.7-0.4-4.2-3.8-4.4l0,0c5.1-0.6,6.3-3,7.2-6.5C185.3,16.4,182.9,14.8,176,14.8z M180.4,21.5c-1.1,4-2.1,5.3-7.6,5.5h-11
		l2.7-9.7h11C181,17.3,181.1,18.4,180.4,21.5z"/>
	<polygon class="st1" points="191.8,27.8 207.6,27.8 208.4,25.5 192.4,25.5 194.7,17.3 211.2,17.3 212,14.8 191.8,14.8 185.1,39.2 
		205.3,39.2 205.9,36.7 189.3,36.7 	"/>
	<path class="st1" d="M256.5,15l-18.1,24h3.8l3.8-5.1h15.8l1,5.1h3.6l-5.1-24C261.3,15,256.5,15,256.5,15z M247.6,31.8l10.9-14.5
		l3,14.5H247.6z"/>
	<path class="st1" d="M292.9,14.8h-8.2c-5.3,0-9.7,1.9-11.6,8.4l-2.1,7.4c-2.1,7.4,1.3,8.6,9.7,8.6h3.4c7,0,10.9-1.3,12.4-7L298,27
		h-13.5l-0.8,2.5h9.9l-0.8,3c-1.1,3.8-2.5,4.4-8.8,4.4h-3.4c-5.9,0-7.6-1-6.3-5.5l2.1-7.8c1.5-5.3,2.7-6.3,9.5-6.3h4.4
		c5.1,0,6.3,0.8,5.5,3.4l-0.4,1.3h3.6l0.6-1.9C300.9,16.4,297.7,14.8,292.9,14.8z"/>
</g>
</svg>
