<?xml version="1.0" encoding="UTF-8"?>
<svg id="Ebene_1" data-name="Ebene 1" xmlns="http://www.w3.org/2000/svg" viewBox="0 0 164.86 36.83">
  <defs>
    <style>
      .cls-1 {
        fill: #652082;
      }

      .cls-2 {
        fill: #fff;
      }
    </style>
  </defs>
  <polygon class="cls-1" points="120.47 4.46 112.45 33.62 117.17 33.62 125.19 4.46 120.47 4.46"/>
  <polygon class="cls-1" points="128.16 4.46 120.13 33.62 123.17 33.62 131.19 4.46 128.16 4.46"/>
  <path class="cls-2" d="M12.88,17.27l-1.8-.1c-1.14-.07-1.78-.1-1.49-1.13.2-.72.5-1.09,2.88-1.09,1.76,0,2.46,0,2.09,1.32h4.22l.16-.53c.97-3.54-2.09-3.59-5.69-3.59-4.31,0-7.03.24-8.04,3.91-1.01,3.68,1.39,3.66,5.38,3.88l.94.05c2.04.1,2.28.08,1.98,1.2-.29,1.07-.99,1.18-3.05,1.18s-2.75-.13-2.37-1.47H3.85c-1.14,4.2,1.62,4.27,5.82,4.27,7.25,0,7.71-2.08,8.28-4.2.81-2.94-.26-3.42-5.07-3.69Z"/>
  <path class="cls-2" d="M25.81,12.25l-8.44,12.82h4.57l1.41-2.2h5.91l.26,2.2h4.48l-1.52-12.82h-6.68ZM24.97,20.36l3.54-5.55h.04l.51,5.55h-4.09Z"/>
  <polygon class="cls-2" points="36.62 12.25 35.81 15.22 40.03 15.22 37.35 25.06 41.74 25.06 44.42 15.22 48.94 15.22 50.14 25.06 52.93 25.06 60.44 13.53 60.49 13.53 61.65 25.06 64.49 25.06 73.16 12.25 71.23 12.25 63.45 23.95 63.41 23.95 62.2 12.25 59.46 12.25 51.83 23.95 51.79 23.95 50.49 12.25 36.62 12.25"/>
  <path class="cls-2" d="M77.98,12.25l-9.49,12.82h1.96l2.02-2.71h8.33l.55,2.71h1.93l-2.66-12.82h-2.64ZM73.3,21.15l5.73-7.71,1.56,7.71h-7.29Z"/>
  <path class="cls-2" d="M96.09,12.25h-7.6l-3.49,12.82h1.87l1.41-5.12h6c2.26,0,2.55.79,2.11,2.41l-.75,2.71h1.87l.92-3.4c.4-1.39-.2-2.21-2.02-2.31v-.04c2.7-.26,3.32-1.59,3.82-3.38.79-2.92-.57-3.69-4.13-3.69ZM98.38,15.78c-.57,2.12-1.1,2.8-4,2.87h-5.76l1.38-5.13h5.75c2.94,0,3.08.61,2.61,2.25Z"/>
  <polygon class="cls-2" points="104.38 19.08 112.73 19.08 113.06 17.89 104.71 17.89 105.9 13.53 114.62 13.53 114.97 12.25 104.38 12.25 100.89 25.06 111.47 25.06 111.83 23.78 103.11 23.78 104.38 19.08"/>
  <path class="cls-2" d="M138.41,12.34l-9.48,12.62h1.95l2.02-2.68h8.32l.55,2.68h1.93l-2.66-12.62h-2.63ZM133.74,21.11l5.73-7.59,1.56,7.59h-7.28Z"/>
  <polygon class="cls-2" points="148.93 12.25 145.44 25.06 147.17 25.06 150.7 12.25 148.93 12.25"/>
</svg>